<?xml version="1.0" encoding="UTF-8" standalone="no"?>
<svg
   width="488"
   height="512"
   viewBox="0 0 488 512"
   fill="none"
   version="1.1"
   id="svg15"
   sodipodi:docname="updater-01.svg"
   inkscape:version="1.2 (dc2aeda, 2022-05-15)"
   xmlns:inkscape="http://www.inkscape.org/namespaces/inkscape"
   xmlns:sodipodi="http://sodipodi.sourceforge.net/DTD/sodipodi-0.dtd"
   xmlns="http://www.w3.org/2000/svg"
   xmlns:svg="http://www.w3.org/2000/svg">
  <defs
     id="defs19" />
  <sodipodi:namedview
     id="namedview17"
     pagecolor="#ffffff"
     bordercolor="#666666"
     borderopacity="1.0"
     inkscape:showpageshadow="2"
     inkscape:pageopacity="0.0"
     inkscape:pagecheckerboard="0"
     inkscape:deskcolor="#d1d1d1"
     showgrid="false"
     inkscape:zoom="1.8535156"
     inkscape:cx="373.61433"
     inkscape:cy="40.193888"
     inkscape:window-width="1390"
     inkscape:window-height="1099"
     inkscape:window-x="83"
     inkscape:window-y="25"
     inkscape:window-maximized="0"
     inkscape:current-layer="svg15" />
  <path
     d="M243.606 342.898C291.63 342.898 330.561 303.967 330.561 255.943C330.561 207.919 291.63 168.988 243.606 168.988C195.582 168.988 156.65 207.919 156.65 255.943C156.65 303.967 195.582 342.898 243.606 342.898Z"
     fill="white"
     id="path9"
     style="fill:#000000" />
  <path
     d="M225.338 42.5043L173.664 3.7777C165.308 -2.48308 153.462 -0.786824 147.201 7.56845C140.941 15.9237 142.637 27.7698 150.992 34.0306L167.345 46.285C145.871 51.5351 125.463 59.9433 106.456 71.3987C82.1084 86.0727 61.0829 105.095 43.964 127.937C26.8452 150.78 14.49 176.3 7.23865 203.788C-0.272275 232.256 -1.94837 261.584 2.25825 290.955C8.42578 334.024 26.9536 373.87 55.8404 406.182C69.7583 421.753 85.811 435.263 103.547 446.335C121.4 457.48 140.694 465.989 160.895 471.625C162.594 472.099 164.303 472.326 165.986 472.326C174.256 472.326 181.853 466.854 184.184 458.499C186.989 448.442 181.111 438.017 171.055 435.21C137.45 425.834 107.356 407.084 84.0265 380.985C60.1251 354.248 44.7907 321.26 39.6843 285.594C36.1986 261.259 37.5823 236.977 43.7927 213.428C49.7938 190.671 60.0294 169.537 74.2144 150.609C88.3995 131.683 105.811 115.925 125.969 103.776C139.844 95.4135 154.629 89.0141 170.135 84.6386L160.149 97.9642C153.888 106.319 155.584 118.166 163.94 124.426C167.34 126.974 171.317 128.204 175.262 128.204C181.011 128.204 186.689 125.591 190.402 120.636L229.128 68.9614C235.389 60.6061 233.693 48.7601 225.338 42.4993V42.5043Z"
     fill="white"
     id="path11"
     style="fill:#000000" />
  <path
     d="M484.951 220.922C478.783 177.852 460.256 138.006 431.369 105.694C417.451 90.1231 401.398 76.6135 383.662 65.5412C365.809 54.3958 346.513 45.8868 326.314 40.251C316.258 37.4458 305.833 43.3235 303.025 53.3775C300.22 63.4341 306.098 73.8612 316.154 76.6664C349.759 86.0425 379.853 104.792 403.183 130.891C427.084 157.628 442.418 190.616 447.525 226.283C451.011 250.617 449.627 274.899 443.416 298.448C437.413 321.205 427.177 342.339 412.995 361.267C398.81 380.193 381.398 395.951 361.24 408.1C347.405 416.437 332.668 422.824 317.21 427.2L327.08 414.03C333.341 405.675 331.645 393.829 323.29 387.568C314.937 381.307 303.088 383.004 296.827 391.359L258.101 443.033C255.094 447.046 253.803 452.087 254.514 457.049C255.225 462.012 257.879 466.488 261.889 469.495L313.563 508.222C316.963 510.77 320.94 512 324.885 512C330.634 512 336.313 509.386 340.025 504.431C346.286 496.076 344.59 484.23 336.235 477.969L319.758 465.621C341.273 460.374 361.716 451.956 380.756 440.482C405.103 425.808 426.129 406.787 443.248 383.944C460.366 361.101 472.724 335.582 479.973 308.094C487.481 279.625 489.157 250.297 484.951 220.927V220.922Z"
     fill="white"
     id="path13"
     style="fill:#000000" />
</svg>
